# xmcd CD database file
#
# Track frame offsets:
#	150
#	13802
#	27770
#	40850
#	52472
#	64627
#	80245
#	93352
#	106102
#	117312
#	129015
#	146527
#	158032
#	171122
#	181965
#	194550
#	207815
#	220980
#	231005
#
# Disc length: 3234 seconds
#
# Revision: 1
# Processed by: cddbd v1.5.2PL0 Copyright (c) Steve Scherf et al.
# Submitted via: CDex 1.51
#
DISCID=080ca013
DTITLE=Pee Wee Crayton - Blues After Hours
DYEAR=1900
DGENRE=Blues
TTITLE0=Texas Hop
TTITLE1=Blues After Hours
TTITLE2=I Love You So
TTITLE3=Got A Letter From My Baby
TTITLE4=Central Avenue Blues
TTITLE5=California Woman
TTITLE6=Bonce Pee Wee
TTITLE7=Change Your Way Of Lovin'
TTITLE8=Jack And The Beanstalk
TTITLE9=Please Come Back
TTITLE10=Dedicating The Blues To You
TTITLE11=Rockin' The Blues
TTITLE12=Crayton's Blues
TTITLE13=Pee Wee's Boogie
TTITLE14=Some Rainy Day
TTITLE15=Tired Of Travelin'
TTITLE16=Mistreated Blues
TTITLE17=Oh Yeah Boogie
TTITLE18=Blues For My Baby
EXTD=
EXTT0=
EXTT1=
EXTT2=
EXTT3=
EXTT4=
EXTT5=
EXTT6=
EXTT7=
EXTT8=
EXTT9=
EXTT10=
EXTT11=
EXTT12=
EXTT13=
EXTT14=
EXTT15=
EXTT16=
EXTT17=
EXTT18=
PLAYORDER=
